<?xml version="1.0" encoding="UTF-8"?><svg id="Layer_2" xmlns="http://www.w3.org/2000/svg" width="166.84mm" height="173.91mm" xmlns:xlink="http://www.w3.org/1999/xlink" viewBox="0 0 472.92 492.97"><defs><style>.cls-1{stroke:#26529a;}.cls-1,.cls-2,.cls-3,.cls-4,.cls-5,.cls-6{stroke-miterlimit:10;}.cls-1,.cls-2,.cls-5,.cls-6{fill:none;}.cls-1,.cls-3{stroke-width:9px;}.cls-2{stroke:#bababa;}.cls-2,.cls-4{stroke-width:10px;}.cls-7,.cls-3,.cls-4{fill:#378dc6;}.cls-7,.cls-8,.cls-9,.cls-10{stroke-width:0px;}.cls-3,.cls-4{stroke:#265299;}.cls-8{fill:#8f1a1d;}.cls-9{fill:#fff;}.cls-11{fill:url(#linear-gradient);stroke:#ec2326;stroke-linejoin:round;}.cls-11,.cls-6{stroke-width:13px;}.cls-5{stroke:#8e1a1d;stroke-width:11px;}.cls-6{stroke:#5ecbee;stroke-linecap:round;}.cls-10{fill:#f1f2f2;opacity:.39;}</style><linearGradient id="linear-gradient" x1="236.46" y1="24.88" x2="236.46" y2="504.86" gradientUnits="userSpaceOnUse"><stop offset=".17" stop-color="#f7ac1b"/><stop offset=".96" stop-color="#f16024"/></linearGradient></defs><g id="Layer_1-2"><path class="cls-11" d="M175.02,6.5c-18.77,9.21-45.64,24.86-72.51,50.55-44.37,42.43-63.05,87.7-72,110.04C5.34,229.96,5.97,283.42,6.77,301.9c1.26,29.38,2.37,55.1,17.62,84.26,22.17,42.39,58.79,62.52,76.6,72,34.51,18.38,64.24,21.58,98.55,25.28,28.81,3.1,72.46,7.38,125.11-7.66,26.46-7.56,55.57-15.88,83.6-41.47,32.74-29.89,44.09-65.14,49.26-81.92,19.35-62.76,2.33-116.74-5.2-140.6-12.58-39.9-31.4-66.85-38.81-76.85-26.63-35.95-56.94-57.04-75.83-68.17-.07,3.72-1.5,43.61-35.23,65.87-1.84,1.21-29.55,18.87-62.81,9.96-47.23-12.66-61.96-65.66-64.34-74.3-7.37-26.76-3.28-49.86-.26-61.79Z"/><path class="cls-9" d="M99.19,188.03c-5.78,8.3-12.4,18.96-18.64,31.91-8.03,16.66-12.3,30.63-14.3,37.79-3.41,12.24-7.55,27.09-7.66,46.98-.1,18.11,3.2,31.76,4.09,35.23,10.88,42.82,42.86,68.19,49.53,73.28,24.52,18.69,47.78,23.03,80.43,29.11,45.18,8.42,81.6,4.09,100.6.77,23.47-4.11,43.29-7.58,65.87-21.45,10.73-6.59,41.47-25.47,52.34-59.74,3.66-11.54,4.84-24.1,5.62-32.43,1.69-17.99.64-31.79,0-39.83-1.86-23.17-6.45-40.73-8.43-47.74-6.06-21.55-14.43-39.9-22.98-54.89-6.55-.77-13.11-1.53-19.66-2.3-.58,2.93-1.88,7.55-5.11,12.26-2.38,3.47-5.02,5.83-7.4,7.66-12.76,9.78-30.64,14.81-30.64,14.81-10.86,3.05-23.54,6.56-42.89,8.94-21.15,2.6-37.35,2.27-46.98,2.04-13.96-.34-25.88-.68-41.62-3.83-8.2-1.64-17.97-3.65-30.13-8.68-18.13-7.5-31.11-17.4-39.32-23.74-4.33-3.35-7.81-6.31-10.21-8.43-4.17.77-8.34,1.53-12.51,2.3Z"/><path class="cls-2" d="M215.18,354.61c-.13,9.17,1.94,15.74,3.5,19.55,1.94,4.72,3.66,6.51,5.62,7.4,1.79.82,3.2.62,7.91.51,3.91-.09,7.03-.04,8.94,0-.03-8.33-.05-16.67-.08-25"/><path class="cls-2" d="M267.3,353.98c.02,9.51-2.09,16.27-3.69,20.17-1.79,4.4-3.42,6.4-5.62,7.4-1.79.82-3.2.62-7.91.51-3.91-.09-7.03-.04-8.94,0-.03-8.33-.05-16.67-.08-25"/><path class="cls-5" d="M197.49,344.8c3.81,3.15,9.33,6.9,16.6,9.45,8.61,3.02,15.64,2.95,28.85,2.81,9.29-.1,13.94-.15,20.17-1.79,8.43-2.22,14.73-5.95,18.64-8.68"/><rect class="cls-7" x="225.49" y="258.8" width="25.48" height="25.48"/><path class="cls-8" d="M137.57,236.03c-27.14,0-49.15,22-49.15,49.15s22,49.15,49.15,49.15,49.15-22,49.15-49.15-22-49.15-49.15-49.15ZM127.18,280.63c-7.76,0-14.04-6.29-14.04-14.04s6.29-14.04,14.04-14.04,14.04,6.29,14.04,14.04-6.29,14.04-14.04,14.04Z"/><ellipse class="cls-10" cx="124.24" cy="272.52" rx="89.87" ry="86.64"/><path class="cls-3" d="M125.99,171.52c-55.42,0-100.34,44.92-100.34,100.34s44.92,100.34,100.34,100.34,100.34-44.92,100.34-100.34-44.92-100.34-100.34-100.34ZM124.24,351.69c-43.73,0-79.17-35.45-79.17-79.17s35.45-79.17,79.17-79.17,79.17,35.45,79.17,79.17-35.45,79.17-79.17,79.17Z"/><path class="cls-8" d="M343.28,235.78c-27.14,0-49.15,22-49.15,49.15s22,49.15,49.15,49.15,49.15-22,49.15-49.15-22-49.15-49.15-49.15ZM333.08,280.63c-7.76,0-14.04-6.29-14.04-14.04s6.29-14.04,14.04-14.04,14.04,6.29,14.04,14.04-6.29,14.04-14.04,14.04Z"/><ellipse class="cls-10" cx="351.71" cy="272.54" rx="89.87" ry="86.64"/><path class="cls-4" d="M351.71,171.52c-55.64,0-100.74,45.1-100.74,100.74s45.1,100.74,100.74,100.74,100.74-45.1,100.74-100.74-45.1-100.74-100.74-100.74ZM351.71,351.69c-43.73,0-79.17-35.45-79.17-79.17s35.45-79.17,79.17-79.17,79.17,35.45,79.17,79.17-35.45,79.17-79.17,79.17Z"/><line class="cls-1" x1="225.49" y1="258.8" x2="250.97" y2="258.8"/><line class="cls-1" x1="225.49" y1="284.92" x2="250.97" y2="284.92"/><path class="cls-6" d="M43.28,234.24c3.47-7.28,14.92-28.89,40.6-41.87,33.26-16.82,65.08-6.4,70.98-4.34"/><path class="cls-6" d="M270.98,234.24c3.47-7.28,14.92-28.89,40.6-41.87,33.26-16.82,65.08-6.4,70.98-4.34"/></g></svg>